<mxfile host="app.diagrams.net" modified="2023-12-30T10:56:20.611Z" agent="Mozilla/5.0 (Windows NT 10.0; Win64; x64) AppleWebKit/537.36 (KHTML, like Gecko) Chrome/120.0.0.0 Safari/537.36" version="22.1.16" etag="QoO1uRsDyZbH0vEeIRRr" type="github">
  <diagram name="Page-1" id="L8ESadhqiN0Mb5OgxYKO">
    <mxGraphModel>
      <root>
        <mxCell id="0" />
        <mxCell id="1" parent="0" />
      </root>
    </mxGraphModel>
  </diagram>
</mxfile>
